<svg width="128" height="52" viewBox="0 0 128 52" fill="none" xmlns="http://www.w3.org/2000/svg">
<path fill-rule="evenodd" clip-rule="evenodd" d="M77.015 32.1117C75.8009 34.1902 73.5891 35.1841 71.2404 35.1841C68.8916 35.1841 66.6799 34.1902 65.4656 32.1117C64.5433 30.5338 64.0934 27.9373 64.1254 26.2829C64.1574 24.6281 64.1801 23.3288 64.5963 21.849C65.1906 19.7331 66.3853 18.0639 68.5153 17.2236C69.382 16.8816 70.3136 16.8088 71.2404 16.8088C72.1672 16.8088 73.0987 16.8816 73.9655 17.2236C76.0954 18.0639 77.29 19.7331 77.8844 21.849C78.3006 23.3288 78.3233 24.6283 78.3551 26.2829C78.3871 27.9373 77.9369 30.5339 77.015 32.1117ZM81.3862 17.6861C80.1893 15.9861 78.6106 14.7338 76.6951 13.9521C74.9105 13.2235 73.0873 13 71.2404 13C69.3932 13 67.5701 13.2235 65.7853 13.9521C63.87 14.7338 62.2915 15.9861 61.0945 17.6861C59.327 20.1958 58.7033 23.5363 58.715 26.0067C58.7267 28.477 58.9599 29.8252 59.6839 31.6559C60.622 34.0259 62.1438 35.9243 64.3335 37.2641C66.4234 38.5426 68.8076 39.0003 71.2404 39.0003C73.673 39.0003 76.0574 38.5426 78.1473 37.2641C80.337 35.9243 81.8589 34.0259 82.7965 31.6559C83.5208 29.8252 83.754 28.4768 83.7655 26.0067C83.7773 23.5363 83.1535 20.1958 81.3862 17.6861ZM125.608 27.8864C124.562 26.7731 123.273 26.1338 121.794 25.8034C121.945 25.7506 122.097 25.6998 122.247 25.644C122.41 25.5829 122.576 25.53 122.731 25.451C124.684 24.4518 125.816 22.8681 126.053 20.6791C126.291 18.4863 125.49 16.7142 123.738 15.403C122.359 14.3697 120.744 14.0445 119.055 14.043C114.989 14.0381 110.924 14.0409 106.859 14.0409C106.756 14.0409 106.653 14.0409 106.55 14.0409C107.405 14.4464 107.93 15.1107 108.163 15.9743C108.34 16.63 108.485 17.3138 108.501 17.989C108.548 19.873 108.522 21.7593 108.521 23.645C108.52 27.4534 108.551 31.2625 108.498 35.0705C108.477 36.551 108.309 38.0468 106.824 38.9986C106.983 38.9986 107.081 38.9986 107.18 38.9986C111.345 38.9986 115.51 39.0023 119.676 38.9967C121.495 38.994 123.197 38.586 124.701 37.4981C127.757 35.2859 128.194 30.6407 125.608 27.8864ZM113.852 17.4562C114.148 17.4562 114.43 17.454 114.711 17.4567C115.596 17.4654 116.48 17.4572 117.364 17.4898C118.965 17.5491 120.134 18.4593 120.433 20.021C120.697 21.3999 120.456 22.7048 119.348 23.7103C118.788 24.2191 118.095 24.4228 117.362 24.4401C116.205 24.4672 115.048 24.4474 113.852 24.4474C113.852 22.1115 113.852 19.8087 113.852 17.4562ZM120.94 34.2492C120.347 35.0232 119.514 35.4163 118.591 35.4581C117.027 35.5292 115.458 35.4776 113.85 35.4776V27.833H114.063C115.42 27.8547 116.782 27.812 118.133 27.9183C120.035 28.0689 121.425 29.2312 121.642 31.2432C121.759 32.3331 121.627 33.353 120.94 34.2492ZM100.737 29.3423C100.209 28.4804 99.4208 28.186 98.5709 28.1518C96.9989 28.0889 95.4234 28.117 93.8498 28.1085L93.7092 28.1089V28.509C93.7092 30.6236 93.682 32.7384 93.7231 34.8514C93.7385 35.6562 93.8549 36.4694 94.0279 37.2555C94.1917 38.001 94.6033 38.6296 95.4244 39.0001C92.4096 39.0001 89.4854 39.0001 86.5002 39.0001C87.7052 38.4605 88.0511 37.4201 88.226 36.2986C88.3165 35.7211 88.3387 35.1287 88.3397 34.5423C88.3475 29.1627 88.3466 23.7832 88.3402 18.4032C88.3397 17.9047 88.3139 17.4015 88.2425 16.9087C88.0606 15.6504 87.544 14.6034 86.2101 14.0401C91.8686 14.0401 97.4325 14.0401 103.021 14.0401C103.021 16.1674 103.021 18.2884 103.021 20.5144C102.905 20.2628 102.826 20.0941 102.748 19.9254C102.043 18.3934 100.807 17.5792 99.1668 17.4964C97.397 17.4065 95.6201 17.4577 93.846 17.4494L93.7282 17.4503V24.6798L94.0252 24.6814C95.2869 24.6822 96.5491 24.6943 97.811 24.6748C98.2567 24.668 98.7059 24.6074 99.1458 24.5274C99.804 24.4067 100.353 24.0908 100.737 23.4417C100.737 25.4212 100.737 27.3384 100.737 29.3423Z" fill="#404A71"/>
<path d="M50.9868 24.9749C50.0117 24.1715 49.306 23.0597 48.6252 22.0098C47.9244 20.9282 47.2956 19.9356 46.3926 18.9977C46.0709 18.6637 45.7488 18.3517 45.4118 18.0587C45.4433 17.6129 45.4508 17.1643 45.4423 16.7004C45.4186 15.398 45.162 14.2512 44.894 12.9899C44.6339 11.7655 44.3481 10.4795 44.47 9.22122L44.6258 7.61514L43.0225 7.77147C41.7654 7.89423 40.4815 7.60768 39.2587 7.34706C37.9991 7.07865 36.854 6.82159 35.5532 6.79803C35.0899 6.78972 34.6419 6.79718 34.1967 6.82872C33.9041 6.49112 33.5924 6.16862 33.2588 5.84628C32.3222 4.94184 31.3311 4.31278 30.2507 3.6108C29.2021 2.92899 28.0919 2.22227 27.2894 1.24594L26.2653 0L25.242 1.24594C24.4399 2.2226 23.3297 2.92899 22.2811 3.6108C21.2007 4.31295 20.2096 4.94168 19.2729 5.84628C18.9393 6.16862 18.6275 6.49112 18.3349 6.82872C17.8898 6.79718 17.4419 6.78989 16.9784 6.79803C15.6778 6.82176 14.5326 7.07882 13.2729 7.34706C12.0501 7.60751 10.7659 7.89423 9.50895 7.77147L7.90553 7.61514L8.06115 9.22122C8.18324 10.4795 7.89791 11.7655 7.63765 12.9899C7.36959 14.2512 7.11305 15.398 7.08935 16.7004C7.08088 17.1645 7.08816 17.6131 7.11966 18.0589C6.78268 18.3519 6.46061 18.6639 6.13871 18.9977C5.23566 19.9356 4.6076 20.9282 3.90639 22.0098C3.22584 23.0597 2.52023 24.1717 1.5447 24.9749L0.300781 25.9999L1.54487 27.0254C2.51972 27.8286 3.22601 28.9401 3.90656 29.9899C4.6076 31.072 5.23583 32.0644 6.13888 33.0023C6.46078 33.3363 6.78285 33.6483 7.11983 33.9413C7.08833 34.3871 7.08105 34.8357 7.08952 35.2998C7.11322 36.6022 7.36976 37.7493 7.63782 39.0105C7.89791 40.2347 8.18324 41.5206 8.06132 42.7791L7.9057 44.385L9.50912 44.2287C10.7661 44.1059 12.0503 44.3925 13.2731 44.6531C14.5326 44.9215 15.6779 45.1784 16.9786 45.2021C17.442 45.2105 17.8901 45.2032 18.3353 45.1716C18.6277 45.5092 18.9394 45.8316 19.273 46.1537C20.2096 47.058 21.2007 47.6872 22.2812 48.3892C23.3299 49.0707 24.4399 49.7779 25.2419 50.7539L26.266 52L27.2893 50.7539C28.0914 49.7774 29.2019 49.0707 30.2506 48.3892C31.3309 47.6872 32.322 47.058 33.2586 46.1537C33.592 45.8314 33.9036 45.509 34.196 45.1716C34.6414 45.2032 35.0894 45.2105 35.5531 45.2021C36.8537 45.1784 37.9989 44.9215 39.2586 44.6531C40.4813 44.3925 41.7652 44.1059 43.0223 44.2287L44.6256 44.385L44.4698 42.7791C44.3477 41.5206 44.6337 40.2347 44.8938 39.0105C45.162 37.7494 45.4186 36.6022 45.4421 35.2998C45.4506 34.8357 45.4431 34.3871 45.4116 33.9411C45.7486 33.6481 46.0707 33.3361 46.3924 33.0021C47.2955 32.0643 47.9239 31.0718 48.6251 29.9897C49.3058 28.9399 50.0112 27.8283 50.9866 27.0251L52.2307 26.0003L50.9868 24.9749ZM36.473 26.3982C39.2183 26.9978 41.8423 30.1053 42.5601 32.7583C40.1794 34.1258 36.1291 34.4659 33.7647 32.946L32.1943 31.9362L33.2024 33.5089C34.7205 35.8763 34.3808 39.9325 33.0151 42.3162C30.3661 41.5975 27.2618 38.9703 26.6634 36.2215L26.266 34.3955L25.8684 36.2212C25.2701 38.9701 22.1661 41.5975 19.5169 42.3162C18.151 39.9325 17.8115 35.8767 19.3294 33.5089L20.3375 31.9362L18.7667 32.946C16.4028 34.4659 12.3524 34.1256 9.97174 32.7583C10.6897 30.1058 13.3132 26.9978 16.0584 26.3982L17.8816 26.0003L16.0581 25.6021C13.313 25.0029 10.6892 21.8945 9.97157 19.2417C12.3522 17.8742 16.4027 17.5339 18.7669 19.0542L20.3373 20.0636L19.3291 18.4909C17.8114 16.1237 18.1509 12.0681 19.5164 9.68429C22.1656 10.4027 25.27 13.0301 25.8682 15.7791L26.2658 17.6048L26.6632 15.779C27.2617 13.0301 30.3661 10.4025 33.0153 9.68429C34.3808 12.0681 34.7203 16.1237 33.2022 18.4914L32.1938 20.0638L33.7642 19.0545C36.1288 17.5344 40.1789 17.8737 42.5597 19.2417C41.8421 21.8945 39.2183 25.0031 36.4729 25.6021L34.6493 26.0003L36.473 26.3982ZM41.8016 10.4439C41.8497 11.4845 42.0455 12.501 42.2465 13.5243C42.4456 14.5358 42.7042 15.3998 42.7958 16.3852C42.728 16.3533 42.6617 16.3211 42.5924 16.2894C40.9367 15.5353 38.5645 15.1613 36.6842 15.5675C37.0901 13.6849 36.7164 11.3095 35.9635 9.65139C35.932 9.58204 35.8999 9.51574 35.868 9.44792C36.8518 9.53965 37.7148 9.79874 38.7248 9.99798C39.7469 10.1996 40.7618 10.3954 41.8016 10.4439ZM23.7756 5.86341C24.6406 5.28216 25.4967 4.70192 26.2662 3.99977C27.0351 4.70158 27.8911 5.28199 28.756 5.8629C29.612 6.43805 30.4065 6.86314 31.1678 7.49594C31.0964 7.52171 31.0258 7.5463 30.9535 7.57343C29.2498 8.21284 27.3084 9.62748 26.266 11.2466C25.2234 9.62748 23.2818 8.21284 21.578 7.57343C21.5057 7.5463 21.4351 7.52188 21.3636 7.49611C22.1251 6.86331 22.9198 6.43822 23.7756 5.86341ZM10.2852 13.5243C10.4865 12.501 10.6819 11.4845 10.7302 10.4439C11.7697 10.3954 12.7847 10.1996 13.8068 9.99831C14.817 9.79891 15.6801 9.53999 16.6639 9.44826C16.6321 9.51608 16.5999 9.58238 16.5684 9.65173C15.8153 11.3097 15.4417 13.6849 15.8476 15.5679C13.967 15.1611 11.5953 15.536 9.93906 16.29C9.8698 16.3216 9.80342 16.354 9.73569 16.3857C9.82746 15.4002 10.086 14.5359 10.2852 13.5243ZM6.15598 28.4935C5.57534 27.6274 4.99588 26.7704 4.29535 26.0003C4.99622 25.2298 5.57568 24.3725 6.15598 23.5065C6.73019 22.6496 7.15471 21.854 7.78666 21.0918C7.8124 21.1634 7.83695 21.2341 7.86405 21.3065C8.50243 23.0123 9.91552 24.9564 11.5323 26.0004C9.91535 27.0442 8.50226 28.9883 7.86405 30.6942C7.83695 30.7666 7.8124 30.8375 7.78666 30.9089C7.15437 30.1464 6.72985 29.3508 6.15598 28.4935ZM10.7302 41.5566C10.6818 40.5158 10.4865 39.4995 10.2852 38.4762C10.086 37.4644 9.82746 36.6003 9.73569 35.615C9.80342 35.6469 9.8698 35.6791 9.93906 35.7108C11.5951 36.465 13.967 36.8389 15.8476 36.4326C15.4417 38.3154 15.8151 40.6908 16.5683 42.3488C16.5998 42.4183 16.6321 42.4848 16.6639 42.5528C15.6801 42.461 14.817 42.2019 13.8068 42.0025C12.7847 41.8009 11.7699 41.6049 10.7302 41.5566ZM28.7564 46.1369C27.8911 46.7184 27.0351 47.2984 26.2658 48.0001C25.4967 47.2986 24.6406 46.7182 23.7756 46.1369C22.9198 45.5621 22.1255 45.1374 21.364 44.5042C21.4353 44.4785 21.5059 44.454 21.5782 44.4269C23.2818 43.7877 25.2236 42.3727 26.2662 40.7536C27.3086 42.3727 29.25 43.7875 30.9536 44.4269C31.0259 44.454 31.0966 44.4785 31.168 44.5042C30.4067 45.1374 29.6122 45.5621 28.7564 46.1369ZM42.2465 38.4762C42.0453 39.4995 41.8497 40.5158 41.8016 41.5566C40.7619 41.6047 39.7469 41.8008 38.7248 42.0024C37.7148 42.2018 36.8517 42.4609 35.8679 42.5526C35.8997 42.4848 35.932 42.4183 35.9635 42.349C36.7164 40.6907 37.0903 38.3153 36.6842 36.4325C38.5647 36.8389 40.9365 36.4649 42.5926 35.7107C42.6618 35.6791 42.728 35.6469 42.7958 35.615C42.7043 36.6003 42.4456 37.4644 42.2465 38.4762ZM46.3758 28.4938C45.8016 29.3508 45.3773 30.1465 44.7453 30.9087C44.7196 30.8371 44.695 30.7663 44.6679 30.6939C44.0294 28.9879 42.6163 27.0439 40.9998 26.0001C42.6165 24.9561 44.0294 23.0121 44.6679 21.3061C44.695 21.2337 44.7194 21.163 44.7453 21.0916C45.3774 21.8538 45.8018 22.6494 46.3758 23.5064C46.9563 24.3725 47.5358 25.2299 48.2365 25.9997C47.5354 26.7704 46.9561 27.6277 46.3758 28.4938Z" fill="#D1AA3B"/>
</svg>
