<svg width="53" height="52" viewBox="0 0 53 52" fill="none" xmlns="http://www.w3.org/2000/svg">
<path d="M50.9868 24.9749C50.0117 24.1715 49.306 23.0597 48.6252 22.0098C47.9244 20.9282 47.2956 19.9356 46.3926 18.9977C46.0709 18.6637 45.7488 18.3517 45.4118 18.0587C45.4433 17.6129 45.4508 17.1643 45.4423 16.7004C45.4186 15.398 45.162 14.2512 44.894 12.9899C44.6339 11.7655 44.3481 10.4795 44.47 9.22122L44.6258 7.61514L43.0225 7.77147C41.7654 7.89423 40.4815 7.60768 39.2587 7.34706C37.9991 7.07865 36.854 6.82159 35.5532 6.79803C35.0899 6.78972 34.6419 6.79718 34.1967 6.82872C33.9041 6.49112 33.5924 6.16862 33.2588 5.84628C32.3222 4.94184 31.3311 4.31278 30.2507 3.6108C29.2021 2.92899 28.0919 2.22227 27.2894 1.24594L26.2653 0L25.242 1.24594C24.4399 2.2226 23.3297 2.92899 22.2811 3.6108C21.2007 4.31295 20.2096 4.94168 19.2729 5.84628C18.9393 6.16862 18.6275 6.49112 18.3349 6.82872C17.8898 6.79718 17.4419 6.78989 16.9784 6.79803C15.6778 6.82176 14.5326 7.07882 13.2729 7.34706C12.0501 7.60751 10.7659 7.89423 9.50895 7.77147L7.90553 7.61514L8.06115 9.22122C8.18324 10.4795 7.89791 11.7655 7.63765 12.9899C7.36959 14.2512 7.11305 15.398 7.08935 16.7004C7.08088 17.1645 7.08816 17.6131 7.11966 18.0589C6.78268 18.3519 6.46061 18.6639 6.13871 18.9977C5.23566 19.9356 4.6076 20.9282 3.90639 22.0098C3.22584 23.0597 2.52023 24.1717 1.5447 24.9749L0.300781 25.9999L1.54487 27.0254C2.51972 27.8286 3.22601 28.9401 3.90656 29.9899C4.6076 31.072 5.23583 32.0644 6.13888 33.0023C6.46078 33.3363 6.78285 33.6483 7.11983 33.9413C7.08833 34.3871 7.08105 34.8357 7.08952 35.2998C7.11322 36.6022 7.36976 37.7493 7.63782 39.0105C7.89791 40.2347 8.18324 41.5206 8.06132 42.7791L7.9057 44.385L9.50912 44.2287C10.7661 44.1059 12.0503 44.3925 13.2731 44.6531C14.5326 44.9215 15.6779 45.1784 16.9786 45.2021C17.442 45.2105 17.8901 45.2032 18.3353 45.1716C18.6277 45.5092 18.9394 45.8316 19.273 46.1537C20.2096 47.058 21.2007 47.6872 22.2812 48.3892C23.3299 49.0707 24.4399 49.7779 25.2419 50.7539L26.266 52L27.2893 50.7539C28.0914 49.7774 29.2019 49.0707 30.2506 48.3892C31.3309 47.6872 32.322 47.058 33.2586 46.1537C33.592 45.8314 33.9036 45.509 34.196 45.1716C34.6414 45.2032 35.0894 45.2105 35.5531 45.2021C36.8537 45.1784 37.9989 44.9215 39.2586 44.6531C40.4813 44.3925 41.7652 44.1059 43.0223 44.2287L44.6256 44.385L44.4698 42.7791C44.3477 41.5206 44.6337 40.2347 44.8938 39.0105C45.162 37.7494 45.4186 36.6022 45.4421 35.2998C45.4506 34.8357 45.4431 34.3871 45.4116 33.9411C45.7486 33.6481 46.0707 33.3361 46.3924 33.0021C47.2955 32.0643 47.9239 31.0718 48.6251 29.9897C49.3058 28.9399 50.0112 27.8283 50.9866 27.0251L52.2307 26.0003L50.9868 24.9749ZM36.473 26.3982C39.2183 26.9978 41.8423 30.1053 42.5601 32.7583C40.1794 34.1258 36.1291 34.4659 33.7647 32.946L32.1943 31.9362L33.2024 33.5089C34.7205 35.8763 34.3808 39.9325 33.0151 42.3162C30.3661 41.5975 27.2618 38.9703 26.6634 36.2215L26.266 34.3955L25.8684 36.2212C25.2701 38.9701 22.1661 41.5975 19.5169 42.3162C18.151 39.9325 17.8115 35.8767 19.3294 33.5089L20.3375 31.9362L18.7667 32.946C16.4028 34.4659 12.3524 34.1256 9.97174 32.7583C10.6897 30.1058 13.3132 26.9978 16.0584 26.3982L17.8816 26.0003L16.0581 25.6021C13.313 25.0029 10.6892 21.8945 9.97157 19.2417C12.3522 17.8742 16.4027 17.5339 18.7669 19.0542L20.3373 20.0636L19.3291 18.4909C17.8114 16.1237 18.1509 12.0681 19.5164 9.68429C22.1656 10.4027 25.27 13.0301 25.8682 15.7791L26.2658 17.6048L26.6632 15.779C27.2617 13.0301 30.3661 10.4025 33.0153 9.68429C34.3808 12.0681 34.7203 16.1237 33.2022 18.4914L32.1938 20.0638L33.7642 19.0545C36.1288 17.5344 40.1789 17.8737 42.5597 19.2417C41.8421 21.8945 39.2183 25.0031 36.4729 25.6021L34.6493 26.0003L36.473 26.3982ZM41.8016 10.4439C41.8497 11.4845 42.0455 12.501 42.2465 13.5243C42.4456 14.5358 42.7042 15.3998 42.7958 16.3852C42.728 16.3533 42.6617 16.3211 42.5924 16.2894C40.9367 15.5353 38.5645 15.1613 36.6842 15.5675C37.0901 13.6849 36.7164 11.3095 35.9635 9.65139C35.932 9.58204 35.8999 9.51574 35.868 9.44792C36.8518 9.53965 37.7148 9.79874 38.7248 9.99798C39.7469 10.1996 40.7618 10.3954 41.8016 10.4439ZM23.7756 5.86341C24.6406 5.28216 25.4967 4.70192 26.2662 3.99977C27.0351 4.70158 27.8911 5.28199 28.756 5.8629C29.612 6.43805 30.4065 6.86314 31.1678 7.49594C31.0964 7.52171 31.0258 7.5463 30.9535 7.57343C29.2498 8.21284 27.3084 9.62748 26.266 11.2466C25.2234 9.62748 23.2818 8.21284 21.578 7.57343C21.5057 7.5463 21.4351 7.52188 21.3636 7.49611C22.1251 6.86331 22.9198 6.43822 23.7756 5.86341ZM10.2852 13.5243C10.4865 12.501 10.6819 11.4845 10.7302 10.4439C11.7697 10.3954 12.7847 10.1996 13.8068 9.99831C14.817 9.79891 15.6801 9.53999 16.6639 9.44826C16.6321 9.51608 16.5999 9.58238 16.5684 9.65173C15.8153 11.3097 15.4417 13.6849 15.8476 15.5679C13.967 15.1611 11.5953 15.536 9.93906 16.29C9.8698 16.3216 9.80342 16.354 9.73569 16.3857C9.82746 15.4002 10.086 14.5359 10.2852 13.5243ZM6.15598 28.4935C5.57534 27.6274 4.99588 26.7704 4.29535 26.0003C4.99622 25.2298 5.57568 24.3725 6.15598 23.5065C6.73019 22.6496 7.15471 21.854 7.78666 21.0918C7.8124 21.1634 7.83695 21.2341 7.86405 21.3065C8.50243 23.0123 9.91552 24.9564 11.5323 26.0004C9.91535 27.0442 8.50226 28.9883 7.86405 30.6942C7.83695 30.7666 7.8124 30.8375 7.78666 30.9089C7.15437 30.1464 6.72985 29.3508 6.15598 28.4935ZM10.7302 41.5566C10.6818 40.5158 10.4865 39.4995 10.2852 38.4762C10.086 37.4644 9.82746 36.6003 9.73569 35.615C9.80342 35.6469 9.8698 35.6791 9.93906 35.7108C11.5951 36.465 13.967 36.8389 15.8476 36.4326C15.4417 38.3154 15.8151 40.6908 16.5683 42.3488C16.5998 42.4183 16.6321 42.4848 16.6639 42.5528C15.6801 42.461 14.817 42.2019 13.8068 42.0025C12.7847 41.8009 11.7699 41.6049 10.7302 41.5566ZM28.7564 46.1369C27.8911 46.7184 27.0351 47.2984 26.2658 48.0001C25.4967 47.2986 24.6406 46.7182 23.7756 46.1369C22.9198 45.5621 22.1255 45.1374 21.364 44.5042C21.4353 44.4785 21.5059 44.454 21.5782 44.4269C23.2818 43.7877 25.2236 42.3727 26.2662 40.7536C27.3086 42.3727 29.25 43.7875 30.9536 44.4269C31.0259 44.454 31.0966 44.4785 31.168 44.5042C30.4067 45.1374 29.6122 45.5621 28.7564 46.1369ZM42.2465 38.4762C42.0453 39.4995 41.8497 40.5158 41.8016 41.5566C40.7619 41.6047 39.7469 41.8008 38.7248 42.0024C37.7148 42.2018 36.8517 42.4609 35.8679 42.5526C35.8997 42.4848 35.932 42.4183 35.9635 42.349C36.7164 40.6907 37.0903 38.3153 36.6842 36.4325C38.5647 36.8389 40.9365 36.4649 42.5926 35.7107C42.6618 35.6791 42.728 35.6469 42.7958 35.615C42.7043 36.6003 42.4456 37.4644 42.2465 38.4762ZM46.3758 28.4938C45.8016 29.3508 45.3773 30.1465 44.7453 30.9087C44.7196 30.8371 44.695 30.7663 44.6679 30.6939C44.0294 28.9879 42.6163 27.0439 40.9998 26.0001C42.6165 24.9561 44.0294 23.0121 44.6679 21.3061C44.695 21.2337 44.7194 21.163 44.7453 21.0916C45.3774 21.8538 45.8018 22.6494 46.3758 23.5064C46.9563 24.3725 47.5358 25.2299 48.2365 25.9997C47.5354 26.7704 46.9561 27.6277 46.3758 28.4938Z" fill="#D1AA3B"/>
</svg>
